<mxfile host="app.diagrams.net" modified="2024-05-20T15:42:28.074Z" agent="Mozilla/5.0 (Windows NT 10.0; Win64; x64) AppleWebKit/537.36 (KHTML, like Gecko) Chrome/124.0.0.0 Safari/537.36" etag="2L4HAJy5wK5a3d3lWUy0" version="24.4.4" type="device">
  <diagram id="n1MsD2sGma1FwFDQO0BA" name="Страница — 1">
    <mxGraphModel dx="873" dy="538" grid="1" gridSize="10" guides="1" tooltips="1" connect="1" arrows="1" fold="1" page="1" pageScale="1" pageWidth="827" pageHeight="1169" math="0" shadow="0">
      <root>
        <mxCell id="WIyWlLk6GJQsqaUBKTNV-0" />
        <mxCell id="WIyWlLk6GJQsqaUBKTNV-1" parent="WIyWlLk6GJQsqaUBKTNV-0" />
        <mxCell id="ktUhu3-NCZiKn9ppjO-P-39" value="" style="edgeStyle=orthogonalEdgeStyle;rounded=0;orthogonalLoop=1;jettySize=auto;html=1;entryX=0.5;entryY=0;entryDx=0;entryDy=0;" parent="WIyWlLk6GJQsqaUBKTNV-1" source="ktUhu3-NCZiKn9ppjO-P-40" target="rdJ_Op79xu3KWm79KU9x-1" edge="1">
          <mxGeometry relative="1" as="geometry">
            <mxPoint x="349.0999999999999" y="95" as="targetPoint" />
          </mxGeometry>
        </mxCell>
        <mxCell id="ktUhu3-NCZiKn9ppjO-P-40" value="start" style="rounded=1;whiteSpace=wrap;html=1;" parent="WIyWlLk6GJQsqaUBKTNV-1" vertex="1">
          <mxGeometry x="280" y="20" width="130" height="60" as="geometry" />
        </mxCell>
        <mxCell id="rdJ_Op79xu3KWm79KU9x-0" value="&lt;b&gt;Задача: Написать программу, которая из имеющегося массива строк формирует новый массив из строк, длина которых меньше, либо равна 3 символам. Первоначальный массив можно ввести с клавиатуры, либо задать на старте выполнения алгоритма. При решении не рекомендуется пользоваться коллекциями, лучше обойтись исключительно массивами.&lt;/b&gt;" style="text;whiteSpace=wrap;html=1;" parent="WIyWlLk6GJQsqaUBKTNV-1" vertex="1">
          <mxGeometry x="420" width="400" height="100" as="geometry" />
        </mxCell>
        <mxCell id="2AsOg9kedwiCdD6UuYNE-0" value="" style="edgeStyle=orthogonalEdgeStyle;rounded=0;orthogonalLoop=1;jettySize=auto;html=1;" parent="WIyWlLk6GJQsqaUBKTNV-1" source="rdJ_Op79xu3KWm79KU9x-1" target="rdJ_Op79xu3KWm79KU9x-3" edge="1">
          <mxGeometry relative="1" as="geometry" />
        </mxCell>
        <mxCell id="rdJ_Op79xu3KWm79KU9x-1" value="&lt;font style=&quot;&quot;&gt;&lt;span style=&quot;font-size: 11px;&quot;&gt;string [] &lt;/span&gt;&lt;b style=&quot;&quot;&gt;&lt;font style=&quot;font-size: 12px;&quot;&gt;array1&lt;/font&gt;&lt;span style=&quot;font-size: 11px;&quot;&gt;=&lt;/span&gt;&lt;/b&gt;&lt;/font&gt;&lt;div style=&quot;font-size: 11px;&quot;&gt;&lt;font style=&quot;font-size: 11px;&quot;&gt;new string[4]&lt;b&gt; {&lt;/b&gt;&lt;b style=&quot;text-align: left;&quot;&gt;&lt;span style=&quot;color: rgb(44, 45, 48); font-family: Onest, Roboto, &amp;quot;San Francisco&amp;quot;, &amp;quot;Helvetica Neue&amp;quot;, Helvetica, Arial; background-color: rgb(255, 255, 255);&quot;&gt;“Hello”, “2”, “world”, “:-)”&lt;/span&gt;&lt;/b&gt;&lt;b&gt;}&lt;/b&gt;&lt;/font&gt;&lt;br&gt;&lt;/div&gt;" style="shape=parallelogram;perimeter=parallelogramPerimeter;whiteSpace=wrap;html=1;fixedSize=1;" parent="WIyWlLk6GJQsqaUBKTNV-1" vertex="1">
          <mxGeometry x="230" y="100" width="230" height="70" as="geometry" />
        </mxCell>
        <mxCell id="rdJ_Op79xu3KWm79KU9x-2" value="&lt;b&gt;&lt;span style=&quot;box-sizing: border-box; color: rgb(44, 45, 48); font-family: Onest, Roboto, &amp;quot;San Francisco&amp;quot;, &amp;quot;Helvetica Neue&amp;quot;, Helvetica, Arial; font-size: 15px; font-variant-ligatures: normal; font-variant-caps: normal; letter-spacing: normal; orphans: 2; text-align: start; text-indent: 0px; text-transform: none; widows: 2; word-spacing: 0px; -webkit-text-stroke-width: 0px; white-space: normal; background-color: rgb(255, 255, 255);&quot;&gt;Примеры&lt;/span&gt;&lt;span style=&quot;color: rgb(44, 45, 48); font-family: Onest, Roboto, &amp;quot;San Francisco&amp;quot;, &amp;quot;Helvetica Neue&amp;quot;, Helvetica, Arial; font-size: 15px; font-variant-ligatures: normal; font-variant-caps: normal; letter-spacing: normal; orphans: 2; text-align: start; text-indent: 0px; text-transform: none; widows: 2; word-spacing: 0px; -webkit-text-stroke-width: 0px; white-space: normal; background-color: rgb(255, 255, 255); float: none; display: inline !important;&quot;&gt;:&lt;/span&gt;&lt;br style=&quot;box-sizing: border-box; color: rgb(44, 45, 48); font-family: Onest, Roboto, &amp;quot;San Francisco&amp;quot;, &amp;quot;Helvetica Neue&amp;quot;, Helvetica, Arial; font-size: 15px; font-variant-ligatures: normal; font-variant-caps: normal; letter-spacing: normal; orphans: 2; text-align: start; text-indent: 0px; text-transform: none; widows: 2; word-spacing: 0px; -webkit-text-stroke-width: 0px; white-space: normal; background-color: rgb(255, 255, 255); text-decoration-thickness: initial; text-decoration-style: initial; text-decoration-color: initial;&quot;&gt;&lt;span style=&quot;color: rgb(44, 45, 48); font-family: Onest, Roboto, &amp;quot;San Francisco&amp;quot;, &amp;quot;Helvetica Neue&amp;quot;, Helvetica, Arial; font-size: 15px; font-variant-ligatures: normal; font-variant-caps: normal; letter-spacing: normal; orphans: 2; text-align: start; text-indent: 0px; text-transform: none; widows: 2; word-spacing: 0px; -webkit-text-stroke-width: 0px; white-space: normal; background-color: rgb(255, 255, 255); float: none; display: inline !important;&quot;&gt;[“Hello”, “2”, “world”, “:-)”] → [“2”, “:-)”]&lt;/span&gt;&lt;br style=&quot;box-sizing: border-box; color: rgb(44, 45, 48); font-family: Onest, Roboto, &amp;quot;San Francisco&amp;quot;, &amp;quot;Helvetica Neue&amp;quot;, Helvetica, Arial; font-size: 15px; font-variant-ligatures: normal; font-variant-caps: normal; letter-spacing: normal; orphans: 2; text-align: start; text-indent: 0px; text-transform: none; widows: 2; word-spacing: 0px; -webkit-text-stroke-width: 0px; white-space: normal; background-color: rgb(255, 255, 255); text-decoration-thickness: initial; text-decoration-style: initial; text-decoration-color: initial;&quot;&gt;&lt;span style=&quot;color: rgb(44, 45, 48); font-family: Onest, Roboto, &amp;quot;San Francisco&amp;quot;, &amp;quot;Helvetica Neue&amp;quot;, Helvetica, Arial; font-size: 15px; font-variant-ligatures: normal; font-variant-caps: normal; letter-spacing: normal; orphans: 2; text-align: start; text-indent: 0px; text-transform: none; widows: 2; word-spacing: 0px; -webkit-text-stroke-width: 0px; white-space: normal; background-color: rgb(255, 255, 255); float: none; display: inline !important;&quot;&gt;[“1234”, “1567”, “-2”, “computer science”] → [“-2”]&lt;/span&gt;&lt;br style=&quot;box-sizing: border-box; color: rgb(44, 45, 48); font-family: Onest, Roboto, &amp;quot;San Francisco&amp;quot;, &amp;quot;Helvetica Neue&amp;quot;, Helvetica, Arial; font-size: 15px; font-variant-ligatures: normal; font-variant-caps: normal; letter-spacing: normal; orphans: 2; text-align: start; text-indent: 0px; text-transform: none; widows: 2; word-spacing: 0px; -webkit-text-stroke-width: 0px; white-space: normal; background-color: rgb(255, 255, 255); text-decoration-thickness: initial; text-decoration-style: initial; text-decoration-color: initial;&quot;&gt;&lt;span style=&quot;color: rgb(44, 45, 48); font-family: Onest, Roboto, &amp;quot;San Francisco&amp;quot;, &amp;quot;Helvetica Neue&amp;quot;, Helvetica, Arial; font-size: 15px; font-variant-ligatures: normal; font-variant-caps: normal; letter-spacing: normal; orphans: 2; text-align: start; text-indent: 0px; text-transform: none; widows: 2; word-spacing: 0px; -webkit-text-stroke-width: 0px; white-space: normal; background-color: rgb(255, 255, 255); float: none; display: inline !important;&quot;&gt;[“Russia”, “Denmark”, “Kazan”] → []&lt;/span&gt;&lt;/b&gt;" style="text;whiteSpace=wrap;html=1;" parent="WIyWlLk6GJQsqaUBKTNV-1" vertex="1">
          <mxGeometry x="490" y="95" width="350" height="80" as="geometry" />
        </mxCell>
        <mxCell id="2AsOg9kedwiCdD6UuYNE-2" value="" style="edgeStyle=orthogonalEdgeStyle;rounded=0;orthogonalLoop=1;jettySize=auto;html=1;entryX=0.5;entryY=0;entryDx=0;entryDy=0;" parent="WIyWlLk6GJQsqaUBKTNV-1" source="rdJ_Op79xu3KWm79KU9x-3" target="9-nIp8VBAe4bRMfJu0gZ-12" edge="1">
          <mxGeometry relative="1" as="geometry">
            <mxPoint x="380" y="300" as="targetPoint" />
          </mxGeometry>
        </mxCell>
        <mxCell id="rdJ_Op79xu3KWm79KU9x-3" value="&lt;div&gt;string []&amp;nbsp;&lt;b&gt;array2=&lt;/b&gt;&lt;span style=&quot;background-color: initial;&quot;&gt;new&lt;b&gt; &lt;/b&gt;string&lt;b&gt;[array1.Length]&lt;/b&gt;&lt;/span&gt;&lt;b&gt;&lt;br&gt;&lt;/b&gt;&lt;/div&gt;&lt;div&gt;int&amp;nbsp;&lt;b&gt;count=0&lt;/b&gt;&lt;b&gt;&lt;br&gt;&lt;/b&gt;&lt;/div&gt;&lt;div&gt;int&lt;b&gt; i=0&lt;/b&gt;&lt;/div&gt;" style="rounded=0;whiteSpace=wrap;html=1;" parent="WIyWlLk6GJQsqaUBKTNV-1" vertex="1">
          <mxGeometry x="228.12" y="200" width="233.76" height="80" as="geometry" />
        </mxCell>
        <mxCell id="9-nIp8VBAe4bRMfJu0gZ-15" style="edgeStyle=orthogonalEdgeStyle;rounded=0;orthogonalLoop=1;jettySize=auto;html=1;exitX=0;exitY=0.5;exitDx=0;exitDy=0;entryX=1;entryY=0.5;entryDx=0;entryDy=0;" edge="1" parent="WIyWlLk6GJQsqaUBKTNV-1" source="rdJ_Op79xu3KWm79KU9x-5" target="2AsOg9kedwiCdD6UuYNE-5">
          <mxGeometry relative="1" as="geometry" />
        </mxCell>
        <mxCell id="9-nIp8VBAe4bRMfJu0gZ-17" value="Yes" style="edgeLabel;html=1;align=center;verticalAlign=middle;resizable=0;points=[];" vertex="1" connectable="0" parent="9-nIp8VBAe4bRMfJu0gZ-15">
          <mxGeometry x="-0.345" y="-1" relative="1" as="geometry">
            <mxPoint as="offset" />
          </mxGeometry>
        </mxCell>
        <mxCell id="9-nIp8VBAe4bRMfJu0gZ-19" value="" style="edgeStyle=orthogonalEdgeStyle;rounded=0;orthogonalLoop=1;jettySize=auto;html=1;" edge="1" parent="WIyWlLk6GJQsqaUBKTNV-1" source="rdJ_Op79xu3KWm79KU9x-5" target="9-nIp8VBAe4bRMfJu0gZ-18">
          <mxGeometry relative="1" as="geometry">
            <Array as="points">
              <mxPoint x="345" y="600" />
            </Array>
          </mxGeometry>
        </mxCell>
        <mxCell id="9-nIp8VBAe4bRMfJu0gZ-20" value="No" style="edgeLabel;html=1;align=center;verticalAlign=middle;resizable=0;points=[];" vertex="1" connectable="0" parent="9-nIp8VBAe4bRMfJu0gZ-19">
          <mxGeometry x="-0.7558" relative="1" as="geometry">
            <mxPoint y="-3" as="offset" />
          </mxGeometry>
        </mxCell>
        <mxCell id="rdJ_Op79xu3KWm79KU9x-5" value="array1[&lt;b&gt;i&lt;/b&gt;].length&amp;lt;=3" style="rhombus;whiteSpace=wrap;html=1;" parent="WIyWlLk6GJQsqaUBKTNV-1" vertex="1">
          <mxGeometry x="283.81" y="460" width="122.38" height="110" as="geometry" />
        </mxCell>
        <mxCell id="2AsOg9kedwiCdD6UuYNE-5" value="&lt;b&gt;array2&lt;/b&gt;[&lt;b&gt;count&lt;/b&gt;]=&lt;b&gt;array1&lt;/b&gt;[&lt;b&gt;i&lt;/b&gt;]&lt;div&gt;&lt;b&gt;i&lt;/b&gt;=&lt;b&gt;i&lt;/b&gt;+1&lt;br&gt;&lt;div&gt;&lt;div&gt;&lt;b&gt;count&lt;/b&gt;=&lt;b&gt;count&lt;/b&gt;+1&lt;/div&gt;&lt;/div&gt;&lt;/div&gt;" style="whiteSpace=wrap;html=1;" parent="WIyWlLk6GJQsqaUBKTNV-1" vertex="1">
          <mxGeometry x="88.11" y="485" width="140.01" height="60" as="geometry" />
        </mxCell>
        <mxCell id="9-nIp8VBAe4bRMfJu0gZ-13" value="" style="edgeStyle=orthogonalEdgeStyle;rounded=0;orthogonalLoop=1;jettySize=auto;html=1;" edge="1" parent="WIyWlLk6GJQsqaUBKTNV-1" source="9-nIp8VBAe4bRMfJu0gZ-12" target="rdJ_Op79xu3KWm79KU9x-5">
          <mxGeometry relative="1" as="geometry" />
        </mxCell>
        <mxCell id="9-nIp8VBAe4bRMfJu0gZ-14" value="Yes" style="edgeLabel;html=1;align=center;verticalAlign=middle;resizable=0;points=[];" vertex="1" connectable="0" parent="9-nIp8VBAe4bRMfJu0gZ-13">
          <mxGeometry x="-0.3633" y="1" relative="1" as="geometry">
            <mxPoint as="offset" />
          </mxGeometry>
        </mxCell>
        <mxCell id="9-nIp8VBAe4bRMfJu0gZ-23" value="" style="edgeStyle=orthogonalEdgeStyle;rounded=0;orthogonalLoop=1;jettySize=auto;html=1;" edge="1" parent="WIyWlLk6GJQsqaUBKTNV-1" source="9-nIp8VBAe4bRMfJu0gZ-12" target="9-nIp8VBAe4bRMfJu0gZ-22">
          <mxGeometry relative="1" as="geometry" />
        </mxCell>
        <mxCell id="9-nIp8VBAe4bRMfJu0gZ-24" value="No" style="edgeLabel;html=1;align=center;verticalAlign=middle;resizable=0;points=[];" vertex="1" connectable="0" parent="9-nIp8VBAe4bRMfJu0gZ-23">
          <mxGeometry x="-0.5529" y="2" relative="1" as="geometry">
            <mxPoint x="3" y="2" as="offset" />
          </mxGeometry>
        </mxCell>
        <mxCell id="9-nIp8VBAe4bRMfJu0gZ-12" value="&lt;b&gt;i&lt;/b&gt;&amp;lt;array1.length" style="rhombus;whiteSpace=wrap;html=1;" vertex="1" parent="WIyWlLk6GJQsqaUBKTNV-1">
          <mxGeometry x="282.5" y="320" width="125" height="90" as="geometry" />
        </mxCell>
        <mxCell id="9-nIp8VBAe4bRMfJu0gZ-16" style="edgeStyle=orthogonalEdgeStyle;rounded=0;orthogonalLoop=1;jettySize=auto;html=1;exitX=0.5;exitY=0;exitDx=0;exitDy=0;entryX=0.46;entryY=0;entryDx=0;entryDy=0;entryPerimeter=0;" edge="1" parent="WIyWlLk6GJQsqaUBKTNV-1" source="2AsOg9kedwiCdD6UuYNE-5" target="9-nIp8VBAe4bRMfJu0gZ-12">
          <mxGeometry relative="1" as="geometry">
            <Array as="points">
              <mxPoint x="158" y="320" />
            </Array>
          </mxGeometry>
        </mxCell>
        <mxCell id="9-nIp8VBAe4bRMfJu0gZ-21" style="edgeStyle=orthogonalEdgeStyle;rounded=0;orthogonalLoop=1;jettySize=auto;html=1;exitX=0;exitY=0.5;exitDx=0;exitDy=0;" edge="1" parent="WIyWlLk6GJQsqaUBKTNV-1" source="9-nIp8VBAe4bRMfJu0gZ-18">
          <mxGeometry relative="1" as="geometry">
            <mxPoint x="160" y="320" as="targetPoint" />
            <Array as="points">
              <mxPoint x="69" y="600" />
              <mxPoint x="69" y="320" />
            </Array>
          </mxGeometry>
        </mxCell>
        <mxCell id="9-nIp8VBAe4bRMfJu0gZ-18" value="&lt;b&gt;i&lt;/b&gt;=&lt;b&gt;i&lt;/b&gt;+1" style="whiteSpace=wrap;html=1;" vertex="1" parent="WIyWlLk6GJQsqaUBKTNV-1">
          <mxGeometry x="89.06" y="570" width="138.12" height="60" as="geometry" />
        </mxCell>
        <mxCell id="9-nIp8VBAe4bRMfJu0gZ-26" value="" style="edgeStyle=orthogonalEdgeStyle;rounded=0;orthogonalLoop=1;jettySize=auto;html=1;exitX=0.52;exitY=0.841;exitDx=0;exitDy=0;exitPerimeter=0;entryX=0.5;entryY=0;entryDx=0;entryDy=0;" edge="1" parent="WIyWlLk6GJQsqaUBKTNV-1" source="9-nIp8VBAe4bRMfJu0gZ-22" target="9-nIp8VBAe4bRMfJu0gZ-25">
          <mxGeometry relative="1" as="geometry">
            <Array as="points">
              <mxPoint x="510" y="392" />
            </Array>
          </mxGeometry>
        </mxCell>
        <mxCell id="9-nIp8VBAe4bRMfJu0gZ-22" value="print&amp;nbsp;&lt;div&gt;&lt;b&gt;array2&lt;/b&gt;[&lt;span style=&quot;background-color: initial; text-align: left;&quot;&gt;&lt;span style=&quot;color: rgb(44, 45, 48); font-family: Onest, Roboto, &amp;quot;San Francisco&amp;quot;, &amp;quot;Helvetica Neue&amp;quot;, Helvetica, Arial; background-color: rgb(255, 255, 255);&quot;&gt;&lt;font style=&quot;font-size: 11px;&quot;&gt;&lt;b&gt;“2”, “:-)”&lt;/b&gt;]&lt;/font&gt;&lt;/span&gt;&lt;/span&gt;&lt;/div&gt;" style="shape=document;whiteSpace=wrap;html=1;boundedLbl=1;" vertex="1" parent="WIyWlLk6GJQsqaUBKTNV-1">
          <mxGeometry x="450" y="325" width="120" height="80" as="geometry" />
        </mxCell>
        <mxCell id="9-nIp8VBAe4bRMfJu0gZ-25" value="end" style="rounded=1;whiteSpace=wrap;html=1;" vertex="1" parent="WIyWlLk6GJQsqaUBKTNV-1">
          <mxGeometry x="450" y="440" width="120" height="60" as="geometry" />
        </mxCell>
      </root>
    </mxGraphModel>
  </diagram>
</mxfile>
